<?xml version="1.0" encoding="UTF-8" standalone="no"?>
<!DOCTYPE svg PUBLIC "-//W3C//DTD SVG 1.1//EN" "http://www.w3.org/Graphics/SVG/1.1/DTD/svg11.dtd">
<svg width="100%" height="100%" viewBox="0 0 2000 2000" version="1.1" xmlns="http://www.w3.org/2000/svg" xmlns:xlink="http://www.w3.org/1999/xlink" xml:space="preserve" xmlns:serif="http://www.serif.com/" style="fill-rule:evenodd;clip-rule:evenodd;stroke-linejoin:round;stroke-miterlimit:2;">
    <g id="Layer1">
        <g transform="matrix(0.000368,-1.25,2.355564,0.000693,-355.932154,1244.725054)">
            <rect x="884" y="151" width="116" height="849" style="fill:white;"/>
        </g>
        <g transform="matrix(0.000368,-1.25,2.355564,0.000693,-356.015211,3104.307101)">
            <rect x="884" y="151" width="116" height="849" style="fill:white;"/>
        </g>
        <g transform="matrix(-1.25,-0.000009,0.000017,-2.355564,1250.080443,2355.698329)">
            <rect x="884" y="151" width="116" height="849" style="fill:white;"/>
        </g>
        <g transform="matrix(-1.25,-0.000009,0.000009,-1.177783,2177.5364,1177.916809)">
            <rect x="884" y="151" width="116" height="849" style="fill:white;"/>
        </g>
        <g transform="matrix(-1.25,0.000705,-0.000096,-0.170789,3105.014367,1097.68759)">
            <rect x="884" y="151" width="116" height="849" style="fill:white;"/>
        </g>
        <g transform="matrix(-1.25,0.000705,-0.00052,-0.921505,3104.994937,920.882257)">
            <rect x="884" y="151" width="116" height="849" style="fill:white;"/>
        </g>
        <g transform="matrix(-1.25,0.000705,-0.000515,-0.913944,3105.350074,2131.005501)">
            <rect x="884" y="151" width="116" height="849" style="fill:white;"/>
        </g>
    </g>
    <g transform="matrix(1,0,0,1,15.27243,-83)">
        <path d="M1033.24,1301.14L1033.791,1301.139C1070.746,1337.309 1125.714,1385.555 1186.158,1419.76C1270.209,1467.322 1373.467,1485.17 1436.551,1484.162C1499.634,1485.17 1602.893,1467.322 1686.943,1419.76C1747.641,1385.412 1802.816,1336.904 1839.774,1300.685L1938.225,1300.629L1985,1346.047C1985,1346.047 1873.328,1473.043 1739.864,1546.038C1636.875,1602.367 1510.349,1623.504 1433.051,1622.31C1355.752,1623.504 1229.227,1602.367 1126.237,1546.038C1046.339,1502.339 974.251,1439.288 929.256,1395.716L1033.24,1301.14Z" style="fill:white;"/>
    </g>
</svg>
